<?xml version="1.0" encoding="UTF-8"?>
<svg version="1.1" xmlns="http://www.w3.org/2000/svg" width="512" height="512">
<path d="M0 0 C1.28812843 -0.01058945 1.28812843 -0.01058945 2.60227966 -0.02139282 C38.56019869 -0.24967647 38.56019869 -0.24967647 55.83984375 3.203125 C57.34345459 3.49316406 57.34345459 3.49316406 58.87744141 3.7890625 C84.78231252 8.91075784 108.96722681 18.06309864 132.83984375 29.203125 C133.7927832 29.64333984 134.74572266 30.08355469 135.72753906 30.53710938 C150.47899487 37.40230863 162.74853198 43.89628743 168.87109375 59.8984375 C172.43625101 71.4851986 171.70102735 82.88580592 166.27734375 93.703125 C160.44538916 103.78548718 152.63330794 110.29745857 141.59375 113.9453125 C125.56626869 118.11645737 111.83947114 112.04087948 97.65234375 104.890625 C60.17037561 86.50029851 15.9595525 74.45649792 -25.28515625 88.015625 C-35.38731587 92.15046243 -43.64687536 98.68218567 -48.28125 108.7265625 C-52.1333472 119.58091639 -54.98028483 133.93689525 -50.66015625 145.015625 C-40.60650138 163.80100088 -17.76908025 171.51476238 1.46386719 177.37182617 C11.85796695 180.37964561 22.41677242 182.68373842 32.96484375 185.078125 C78.60308313 195.45417777 124.60297867 209.82218155 158.83984375 243.203125 C159.47921875 243.780625 160.11859375 244.358125 160.77734375 244.953125 C179.36182803 262.16098081 189.49069638 288.615161 191.04492188 313.48461914 C192.1164354 350.00081612 183.39987043 382.53147208 158.10546875 409.8046875 C157.3578125 410.59617187 156.61015625 411.38765625 155.83984375 412.203125 C155.1540625 412.95335937 154.46828125 413.70359375 153.76171875 414.4765625 C128.68811204 440.94314736 88.25746295 454.68312584 52.46841431 456.31098938 C49.96556329 456.36653369 47.4643715 456.39347924 44.9609375 456.40625 C44.03947433 456.41326431 43.11801117 456.42027863 42.16862488 456.42750549 C39.20481439 456.44494068 36.24120367 456.45135941 33.27734375 456.453125 C31.75944244 456.45413712 31.75944244 456.45413712 30.21087646 456.45516968 C15.20124338 456.43924915 0.62409982 456.02402271 -14.16015625 453.203125 C-15.09794922 453.03151855 -16.03574219 452.85991211 -17.00195312 452.68310547 C-56.41078959 445.31862851 -117.18423078 426.6632482 -142.57421875 393.34765625 C-149.09411712 383.79657706 -150.21292151 373.57062407 -149.16015625 362.203125 C-147.53439615 354.33150688 -144.50366044 348.1661659 -139.16015625 342.203125 C-138.64710938 341.58695312 -138.1340625 340.97078125 -137.60546875 340.3359375 C-130.89191625 332.85145074 -121.07748972 329.03443089 -111.16015625 328.203125 C-97.56576646 327.91132623 -87.63242072 333.07618212 -76.49804688 340.19262695 C-51.38894779 356.24012854 -23.82795357 367.98341641 5.83984375 372.203125 C7.12117187 372.38617188 8.4025 372.56921875 9.72265625 372.7578125 C16.30532304 373.45637553 22.9260279 373.42648705 29.53857422 373.44335938 C31.80735059 373.45298711 34.07518807 373.48405554 36.34375 373.515625 C57.66965444 373.67030419 80.98714288 369.69553721 96.83984375 354.203125 C105.59171286 343.16433532 108.9585319 331.17074566 107.83984375 317.203125 C105.45256272 306.24464221 99.18664747 298.0108067 89.86328125 291.94921875 C80.39048981 286.47849811 70.57293409 282.23145792 60.14453125 278.93359375 C59.20747345 278.63664108 58.27041565 278.33968842 57.30496216 278.03373718 C46.22358173 274.5996586 34.97298838 271.82527118 23.72026348 269.01838493 C-91.39307554 240.29180223 -91.39307554 240.29180223 -120.05859375 192.9453125 C-130.53381119 174.80811201 -135.57975198 155.04877113 -135.47265625 134.140625 C-135.4670166 132.96741699 -135.46137695 131.79420898 -135.45556641 130.58544922 C-135.1305746 106.98332184 -130.04900575 83.74187461 -118.16015625 63.203125 C-117.81082031 62.59388184 -117.46148437 61.98463867 -117.1015625 61.35693359 C-100.34925748 32.61568501 -72.34564204 14.53219127 -40.71044922 5.84814453 C-27.38932754 2.4789694 -13.75418292 0.07524933 0 0 Z " fill="#8EB53D" transform="translate(235.16015625,27.796875)"/>
<path d="M0 0 C0.33 0 0.66 0 1 0 C1.09796875 0.76183594 1.1959375 1.52367187 1.296875 2.30859375 C3.03726727 14.32630243 7.06427029 24.45845534 16.75 32.25 C26.33702029 38.99029971 37.42490178 41.34914879 48.9296875 39.5390625 C60.30309772 37.07916461 68.15858283 31.38561765 75 22 C77.85260938 16.94656439 79.56985912 11.60138511 81 6 C81.33 6 81.66 6 82 6 C81.13919668 37.97884322 68.99628431 65.71427833 47 89 C46.31421875 89.75023437 45.6284375 90.50046875 44.921875 91.2734375 C19.84826829 117.74002236 -20.5823808 131.48000084 -56.37142944 133.10786438 C-58.87428046 133.16340869 -61.37547225 133.19035424 -63.87890625 133.203125 C-65.261101 133.21364647 -65.261101 133.21364647 -66.67121887 133.22438049 C-69.63502936 133.24181568 -72.59864008 133.24823441 -75.5625 133.25 C-76.5744342 133.25067474 -77.58636841 133.25134949 -78.62896729 133.25204468 C-93.63860037 133.23612415 -108.21574393 132.82089771 -123 130 C-123.93779297 129.82839355 -124.87558594 129.65678711 -125.84179688 129.47998047 C-165.25063334 122.11550351 -226.02407453 103.4601232 -251.4140625 70.14453125 C-257.93396087 60.59345206 -259.05276526 50.36749907 -258 39 C-256.3742399 31.12838188 -253.34350419 24.9630409 -248 19 C-247.48695313 18.38382812 -246.97390625 17.76765625 -246.4453125 17.1328125 C-239.73176 9.64832574 -229.91733347 5.83130589 -220 5 C-206.40561021 4.70820123 -196.47226447 9.87305712 -185.33789062 16.98950195 C-160.22879154 33.03700354 -132.66779732 44.78029141 -103 49 C-101.71867188 49.18304688 -100.43734375 49.36609375 -99.1171875 49.5546875 C-92.53452071 50.25325053 -85.91381585 50.22336205 -79.30126953 50.24023438 C-77.03249316 50.24986211 -74.76465568 50.28093054 -72.49609375 50.3125 C-51.17018931 50.46717919 -27.85270087 46.49241221 -12 31 C-4.55831359 21.61375232 -1.53410246 11.74799515 0 0 Z " fill="#F6921E" transform="translate(344,351)"/>
<path d="M0 0 C0.92852783 0.00215515 1.85705566 0.0043103 2.8137207 0.00653076 C16.90689159 0.0589905 30.64195628 0.5433995 44.5 3.3125 C46.00361084 3.60253906 46.00361084 3.60253906 47.53759766 3.8984375 C73.44246877 9.02013284 97.62738306 18.17247364 121.5 29.3125 C122.45293945 29.75271484 123.40587891 30.19292969 124.38769531 30.64648438 C139.13915112 37.51168363 151.40868823 44.00566243 157.53125 60.0078125 C161.09640726 71.5945736 160.3611836 82.99518092 154.9375 93.8125 C149.10554541 103.89486218 141.29346419 110.40683357 130.25390625 114.0546875 C114.22642494 118.22583237 100.49962739 112.15025448 86.3125 105 C48.83053186 86.60967351 4.61970875 74.56587292 -36.625 88.125 C-46.74902271 92.26878604 -54.9269815 98.79006053 -59.625 108.8125 C-62.46662387 116.93142535 -63.62979856 125.78452592 -64.5 134.3125 C-64.83 134.3125 -65.16 134.3125 -65.5 134.3125 C-65.58636719 133.41789063 -65.67273438 132.52328125 -65.76171875 131.6015625 C-67.0410966 120.59187052 -69.98491246 110.8814667 -78.5 103.3125 C-87.1244427 97.16667865 -95.2635252 93.73922957 -105.875 93.875 C-106.71208496 93.88329834 -107.54916992 93.89159668 -108.41162109 93.90014648 C-119.03753543 94.19054543 -126.84981293 97.90404747 -134.5 105.3125 C-140.28721115 111.91175066 -143.17726903 118.91604395 -145.5 127.3125 C-145.83 127.3125 -146.16 127.3125 -146.5 127.3125 C-145.96394364 93.73587899 -133.95442588 62.55548818 -110.8125 38.1875 C-92.58065886 20.6393529 -70.1259052 10.41221635 -45.75 4.5 C-44.94804199 4.30510986 -44.14608398 4.11021973 -43.31982422 3.90942383 C-28.88545497 0.61780736 -14.73334161 -0.06151502 0 0 Z " fill="#1DBDCA" transform="translate(246.5,27.6875)"/>
<path d="M0 0 C8.58661517 6.37635682 14.49470377 15.53807685 16.72265625 26.0625 C18.33857992 38.44366168 15.96705416 48.83389061 9 59.1875 C1.69203251 68.2141673 -7.4116525 73.77049938 -19 75.1875 C-28.71718504 76.15475425 -38.46537648 74.02943873 -47 69.1875 C-49.375 67 -49.375 67 -52 64.1875 C-52.48726563 63.6821875 -52.97453125 63.176875 -53.4765625 62.65625 C-61.84088581 53.56272927 -65.53752838 42.79529693 -65.3125 30.53125 C-64.18028218 18.41651935 -57.39526171 8.58882826 -48.296875 0.91015625 C-34.03929964 -9.78302527 -14.97054877 -9.38489864 0 0 Z " fill="#EC3D8A" transform="translate(389,67.8125)"/>
<path d="M0 0 C0.7425 0.9075 1.485 1.815 2.25 2.75 C2.87390625 3.37519531 3.4978125 4.00039063 4.140625 4.64453125 C12.18458925 12.91193896 15.69723164 21.34032757 15.8125 32.8125 C15.59276906 45.49373839 11.42846512 54.47408965 2.5234375 63.5 C-6.80428727 72.01847011 -17.36489762 74.19869922 -29.734375 74.01171875 C-33.73540937 73.66447872 -36.19950707 72.59625632 -39.75 70.75 C-40.843125 70.54375 -41.93625 70.3375 -43.0625 70.125 C-51.76677732 66.87933727 -58.55179579 58.88315469 -62.75 50.75 C-67.1947273 40.9648399 -67.20388602 29.50245331 -64.125 19.3125 C-62.11409176 14.04885948 -59.49655621 9.93093954 -55.75 5.75 C-55.23695312 5.13382812 -54.72390625 4.51765625 -54.1953125 3.8828125 C-40.95606625 -10.87672997 -15.25106172 -12.47814141 0 0 Z " fill="#9C2583" transform="translate(151.75,364.25)"/>
<path d="M0 0 C9.48754216 5.67236967 16.86452053 12.67720197 20.44921875 23.4140625 C23.69686202 36.50676274 22.4012418 47.02136328 15.82421875 58.9140625 C9.69461151 68.34540331 0.56526287 74.14351273 -10.42578125 76.5390625 C-24.13125888 77.36031411 -34.41915711 76.61966628 -45.328125 67.5 C-54.17871824 59.22626106 -59.5060318 48.67927344 -59.98828125 36.4140625 C-59.37274809 24.23298522 -54.03290935 13.49404798 -45.11328125 5.2265625 C-32.53670099 -4.81188705 -14.53863339 -7.25917818 0 0 Z " fill="#00A14B" transform="translate(159.42578125,124.4609375)"/>
<path d="M0 0 C10.13166077 8.31505104 15.20159199 16.91573223 16.78125 29.90234375 C17.52680784 40.45997528 14.52110315 50.84602567 7.75 59.08984375 C-0.38950357 67.97425725 -8.86837085 72.98878174 -21.03515625 74.203125 C-32.74040934 74.47376669 -43.64890752 70.9335466 -52.2578125 62.890625 C-56.47826681 58.37427168 -59.74688621 53.76663281 -62 48 C-62.35449219 47.10925781 -62.70898438 46.21851563 -63.07421875 45.30078125 C-65.82622576 35.48877314 -65.173129 23.79967723 -60.66796875 14.67578125 C-54.5445354 4.85247482 -46.24696846 -1.91332825 -35.625 -6.4375 C-22.9828422 -8.39921414 -10.82975662 -7.0708044 0 0 Z " fill="#947839" transform="translate(409,318)"/>
<path d="M0 0 C0.33 0 0.66 0 1 0 C1.29296875 6.0546875 1.29296875 6.0546875 1 8 C0.01 8.66 -0.98 9.32 -2 10 C-1.34 6.7 -0.68 3.4 0 0 Z " fill="#EB8E22" transform="translate(425,357)"/>
</svg>
